<svg width="109" height="30" viewBox="0 0 109 30" fill="none" xmlns="http://www.w3.org/2000/svg">
<path d="M41.4259 0.620768L32.0647 25.0625H37.0929L39.0173 19.9556H48.9496L50.8823 25.0625H55.8733L46.57 0.620768H41.4259ZM40.7431 15.4695L44.0124 6.86983L47.2694 15.4695H40.7431ZM61.8822 18.7596L57.8224 7.89206H53.026L59.5647 25.0625H64.3198L70.7427 7.89206H65.9462L61.8822 18.7596ZM76.7766 7.89206H72.2119V25.0625H76.7766V7.89206ZM74.4922 6.65463C76.3298 6.65463 77.8195 5.16494 77.8195 3.32732C77.8195 1.48969 76.3298 0 74.4922 0C72.6545 0 71.1648 1.48969 71.1648 3.32732C71.1648 5.16494 72.6545 6.65463 74.4922 6.65463ZM85.8233 3.31076H81.271V7.86306H78.6017V12.0015H81.271V19.2976C81.271 23.4361 83.5513 25.2156 86.7628 25.2156C87.8465 25.2299 88.9216 25.0199 89.9204 24.599V20.3446C89.3753 20.5443 88.8 20.6492 88.2195 20.655C86.8248 20.655 85.8192 20.1129 85.8192 18.2547V12.0015H89.9204V7.90444H85.8233V3.31076ZM99.5174 7.58167C97.7572 7.58086 96.0364 8.1021 94.5725 9.07948C93.1087 10.0569 91.9676 11.4464 91.2937 13.0724C90.6197 14.6985 90.4431 16.4878 90.7863 18.2142C91.1295 19.9405 91.977 21.5263 93.2216 22.771C94.4662 24.0156 96.052 24.8631 97.7784 25.2063C99.5048 25.5494 101.294 25.3729 102.92 24.6989C104.546 24.025 105.936 22.8839 106.913 21.4201C107.89 19.9562 108.412 18.2354 108.411 16.4752C108.41 14.1168 107.472 11.8554 105.805 10.1877C104.137 8.52012 101.876 7.58277 99.5174 7.58167ZM99.5174 20.8247C98.6602 20.8255 97.8221 20.5721 97.109 20.0965C96.3959 19.6209 95.8399 18.9445 95.5113 18.1528C95.1827 17.3611 95.0963 16.4898 95.263 15.649C95.4298 14.8082 95.8421 14.0358 96.4479 13.4294C97.0537 12.823 97.8258 12.4099 98.6664 12.2424C99.507 12.0748 100.378 12.1604 101.17 12.4882C101.962 12.8161 102.639 13.3714 103.116 14.0841C103.592 14.7967 103.846 15.6346 103.846 16.4918C103.844 17.638 103.387 18.7365 102.575 19.5459C101.763 20.3553 100.664 20.8093 99.5174 20.8082V20.8247Z" fill="black"/>
<path d="M8.89768 27.5C13.8117 27.5 17.7954 23.5164 17.7954 18.6023C17.7954 13.6883 13.8117 9.70465 8.89768 9.70465C3.98363 9.70465 0 13.6883 0 18.6023C0 23.5164 3.98363 27.5 8.89768 27.5Z" fill="#04E061"/>
<path d="M24.33 26.3785C27.299 26.3785 29.7058 23.9717 29.7058 21.0027C29.7058 18.0337 27.299 15.6268 24.33 15.6268C21.361 15.6268 18.9541 18.0337 18.9541 21.0027C18.9541 23.9717 21.361 26.3785 24.33 26.3785Z" fill="#FF4053"/>
<path d="M10.5986 8.55009C12.4362 8.55009 13.9259 7.0604 13.9259 5.22277C13.9259 3.38514 12.4362 1.89545 10.5986 1.89545C8.76098 1.89545 7.27129 3.38514 7.27129 5.22277C7.27129 7.0604 8.76098 8.55009 10.5986 8.55009Z" fill="#965EEB"/>
<path d="M22.2401 14.468C26.2353 14.468 29.4741 11.2293 29.4741 7.23402C29.4741 3.23878 26.2353 0 22.2401 0C18.2448 0 15.006 3.23878 15.006 7.23402C15.006 11.2293 18.2448 14.468 22.2401 14.468Z" fill="#00AAFF"/>
</svg>
