<svg width="110" height="47" viewBox="0 0 110 47" fill="none" xmlns="http://www.w3.org/2000/svg">
<path fill-rule="evenodd" clip-rule="evenodd" d="M19.3 8.971C17.753 8.971 16.5 7.707 16.5 6.147C16.5 4.587 17.753 3.322 19.3 3.322C20.845 3.322 22.099 4.587 22.099 6.147C22.099 7.707 20.845 8.971 19.299 8.971H19.3ZM19.3 0.001C15.927 0.001 13.193 2.758 13.193 6.161C13.1906 7.50288 13.626 8.80893 14.433 9.881L14.839 10.448L19.299 15.875L24.166 9.88C24.9726 8.80777 25.4076 7.50176 25.405 6.16C25.405 2.758 22.671 0 19.299 0L19.3 0.001ZM21.63 28.621V18.284H17.107V23.139L12.587 17.66L0 32.916L4.187 36.432L12.587 26.252L20.987 36.432L25.173 32.916L21.63 28.621V28.621Z" fill="#0468FF"/>
<path fill-rule="evenodd" clip-rule="evenodd" d="M49.355 15.02H45.344V29.11H37.415V15.021H33.405V32.854H48.175V36.432H51.809V29.112H49.355V15.019V15.02ZM58.625 27.026V15.02H54.615V32.853H58.625L67.025 20.847V32.853H71.036V15.02H67.026L58.626 27.026H58.625ZM105.598 15.02V22.027H97.41V15.02H93.399V32.853H97.41V25.795H105.598V32.853H109.585V15.02H105.598ZM85.525 25.323C85.525 26.723 85.132 27.818 84.358 28.579C83.574 29.349 82.436 29.739 80.976 29.739C79.149 29.739 78.143 28.909 78.143 27.4C78.143 25.827 79.459 24.888 81.662 24.888H85.524V25.323H85.525ZM82.177 14.679C80.081 14.679 78.276 15.245 76.956 16.316C75.721 17.316 74.99 18.715 74.891 20.256H78.845C79.025 19.428 79.902 18.137 82.177 18.137C84.273 18.137 85.524 19.4 85.524 21.515V21.603H81.49C79.102 21.603 77.257 22.148 76.006 23.223C74.808 24.253 74.201 25.716 74.201 27.573C74.201 29.174 74.825 30.611 75.961 31.618C77.123 32.651 78.739 33.197 80.633 33.197C83.599 33.197 85.213 31.737 85.768 31.111L86.043 32.639L86.081 32.85H89.467V21.515C89.467 17.299 86.673 14.679 82.177 14.679V14.679Z" fill="#152242"/>
</svg>
