<svg width="249" height="211" viewBox="0 0 249 211" fill="none" xmlns="http://www.w3.org/2000/svg">
<g clip-path="url(#clip0_746_11641)">
<rect width="248.1" height="210.9" fill="white" fill-opacity="0.01"/>
<path d="M173.2 61.3H22.2002V210.95H173.2V61.3Z" fill="#CFD4DB"/>
<path d="M173.3 61.3H64.2002V166.51H173.3V61.3Z" fill="url(#paint0_linear_746_11641)"/>
<path d="M84.9006 111.5H49.1006V113.5H84.9006V111.5Z" fill="white"/>
<path d="M84.9006 99.6H49.1006V101.6H84.9006V99.6Z" fill="white"/>
<path d="M68.5006 87.7H49.1006V89.7H68.5006V87.7Z" fill="white"/>
<path d="M42.5006 87.7H38.1006V89.7H42.5006V87.7Z" fill="white"/>
<path d="M42.5006 99.6H38.1006V101.6H42.5006V99.6Z" fill="white"/>
<path d="M42.5006 111.5H38.1006V113.5H42.5006V111.5Z" fill="white"/>
<path d="M42.5006 123.3H38.1006V125.3H42.5006V123.3Z" fill="white"/>
<path d="M42.5006 135.2H38.1006V137.2H42.5006V135.2Z" fill="white"/>
<path d="M42.5006 147H38.1006V149H42.5006V147Z" fill="white"/>
<path d="M42.5006 158.9H38.1006V160.9H42.5006V158.9Z" fill="white"/>
<path d="M42.5006 170.8H38.1006V172.8H42.5006V170.8Z" fill="white"/>
<path d="M42.5006 182.6H38.1006V184.6H42.5006V182.6Z" fill="white"/>
<path d="M153.4 147H92.4004V149H153.4V147Z" fill="white"/>
<path d="M85.6006 147H49.1006V149H85.6006V147Z" fill="white"/>
<path d="M159.201 158.9H107.301V160.9H159.201V158.9Z" fill="white"/>
<path d="M100.601 158.9H68.501V160.9H100.601V158.9Z" fill="white"/>
<path d="M139.101 170.8H68.501V172.8H139.101V170.8Z" fill="white"/>
<path d="M117.1 182.6H87.9004V184.6H117.1V182.6Z" fill="white"/>
<path d="M105.101 123.3H71.6006V125.3H105.101V123.3Z" fill="white"/>
<path d="M105.101 135.2H71.6006V137.2H105.101V135.2Z" fill="white"/>
<path d="M41.7002 137.5C34.7439 137.488 27.9467 139.58 22.2002 143.5V154.6C25.6926 150.741 30.2514 148.005 35.2996 146.738C40.3478 145.472 45.6583 145.731 50.5588 147.484C55.4594 149.237 59.7296 152.405 62.8289 156.586C65.9282 160.768 67.7172 165.775 67.9694 170.973C68.2216 176.172 66.9257 181.328 64.2458 185.79C61.5658 190.251 57.6223 193.818 52.9145 196.037C48.2067 198.256 42.9462 199.029 37.7992 198.257C32.6521 197.485 27.8498 195.203 24.0002 191.7L22.2002 189.9V201C26.6956 204.021 31.8358 205.948 37.2094 206.626C42.583 207.305 48.0408 206.716 53.146 204.907C58.2512 203.098 62.8621 200.119 66.6095 196.208C70.3569 192.297 73.1368 187.564 74.7268 182.386C76.3168 177.208 76.6727 171.731 75.7659 166.391C74.8592 161.051 72.7151 155.997 69.5051 151.635C66.2952 147.272 62.1086 143.722 57.2804 141.267C52.4522 138.813 47.1164 137.523 41.7002 137.5Z" fill="#CFD4DB"/>
<path d="M232 0H81V149.65H232V0Z" fill="url(#paint1_linear_746_11641)"/>
<path d="M143.699 50.2H107.899V52.2H143.699V50.2Z" fill="#FFAB00"/>
<path d="M143.699 38.3H107.899V40.3H143.699V38.3Z" fill="#0065FF"/>
<path d="M127.299 26.4H107.899V28.4H127.299V26.4Z" fill="#E5E8EC"/>
<path d="M101.2 26.4H96.7998V28.4H101.2V26.4Z" fill="#E5E8EC"/>
<path d="M101.2 38.3H96.7998V40.3H101.2V38.3Z" fill="#E5E8EC"/>
<path d="M101.2 50.2H96.7998V52.2H101.2V50.2Z" fill="#E5E8EC"/>
<path d="M101.2 62H96.7998V64H101.2V62Z" fill="#E5E8EC"/>
<path d="M101.2 73.9H96.7998V75.9H101.2V73.9Z" fill="#E5E8EC"/>
<path d="M101.2 85.7H96.7998V87.7H101.2V85.7Z" fill="#E5E8EC"/>
<path d="M101.2 97.6H96.7998V99.6H101.2V97.6Z" fill="#E5E8EC"/>
<path d="M101.2 109.5H96.7998V111.5H101.2V109.5Z" fill="#E5E8EC"/>
<path d="M101.2 121.3H96.7998V123.3H101.2V121.3Z" fill="#E5E8EC"/>
<path d="M212.1 85.7H151.1V87.7H212.1V85.7Z" fill="#FFAB00"/>
<path d="M144.399 85.7H107.899V87.7H144.399V85.7Z" fill="#E5E8EC"/>
<path d="M218 97.6H166.1V99.6H218V97.6Z" fill="#FFAB00"/>
<path d="M159.3 97.6H127.2V99.6H159.3V97.6Z" fill="#0065FF"/>
<path d="M197.8 109.5H127.2V111.5H197.8V109.5Z" fill="#0065FF"/>
<path d="M175.8 121.3H146.6V123.3H175.8V121.3Z" fill="#E5E8EC"/>
<path d="M163.899 62H130.399V64H163.899V62Z" fill="#E5E8EC"/>
<path d="M163.899 73.9H130.399V75.9H163.899V73.9Z" fill="#E5E8EC"/>
<path opacity="0.5" d="M232 66C227.57 60.7584 221.685 56.9483 215.089 55.0515C208.493 53.1546 201.483 53.2563 194.945 55.3437C188.407 57.431 182.635 61.4102 178.359 66.7781C174.082 72.146 171.494 78.6615 170.92 85.5006C170.347 92.3397 171.814 99.1953 175.137 105.2C178.46 111.205 183.489 116.09 189.588 119.237C195.687 122.384 202.583 123.652 209.402 122.88C216.222 122.108 222.659 119.331 227.9 114.9C229.365 113.635 230.736 112.265 232 110.8V66ZM205.5 114.7C200.299 114.7 195.214 113.158 190.889 110.268C186.564 107.378 183.193 103.27 181.202 98.4646C179.212 93.6589 178.691 88.3708 179.706 83.2691C180.721 78.1674 183.225 73.4812 186.904 69.8031C190.582 66.125 195.268 63.6201 200.37 62.6053C205.471 61.5906 210.759 62.1114 215.565 64.102C220.371 66.0925 224.478 69.4635 227.368 73.7885C230.258 78.1135 231.8 83.1983 231.8 88.4C231.8 95.3752 229.03 102.065 224.097 106.997C219.165 111.929 212.476 114.7 205.5 114.7Z" fill="#091E42"/>
<path d="M14.7672 186.983L-0.0820312 201.832L4.16061 206.075L19.0099 191.226L14.7672 186.983Z" fill="#0065FF"/>
<path d="M210.5 113.9C227.345 113.9 241 100.245 241 83.4C241 66.5553 227.345 52.9 210.5 52.9C193.655 52.9 180 66.5553 180 83.4C180 100.245 193.655 113.9 210.5 113.9Z" fill="#1E4E2B"/>
<path d="M217.9 86.8H178.7V92.8H217.9V86.8Z" fill="#FDC150"/>
<path d="M217.9 67.9H182.7V73.9H217.9V67.9Z" fill="#FAFBFC"/>
<path opacity="0.5" d="M241 83.4C241 82.3 241 81.3 240.9 80.2C237.9 71.0934 231.428 63.5382 222.89 59.1756C214.352 54.8129 204.437 53.9952 195.3 56.9C190.656 59.5694 186.797 63.4148 184.111 68.0492C181.425 72.6836 180.007 77.9436 180 83.3C181.032 79.7864 182.752 76.5133 185.061 73.6713C187.371 70.8292 190.222 68.4751 193.45 66.7461C196.678 65.017 200.218 63.9476 203.863 63.6002C207.509 63.2527 211.187 63.6341 214.683 64.7222C218.18 65.8103 221.425 67.5833 224.229 69.938C227.034 72.2926 229.341 75.1818 231.018 78.4371C232.695 81.6925 233.707 85.2491 233.996 88.8996C234.285 92.55 233.844 96.2215 232.7 99.7C231.735 102.716 230.282 105.554 228.4 108.1C232.302 105.271 235.479 101.558 237.669 97.2646C239.859 92.9712 241.001 88.2198 241 83.4Z" fill="#325D2D"/>
<path d="M210.5 116.9C203.874 116.9 197.397 114.935 191.888 111.254C186.379 107.573 182.086 102.341 179.55 96.2199C177.015 90.0986 176.351 83.3628 177.644 76.8645C178.936 70.3661 182.127 64.397 186.812 59.7119C191.497 55.0269 197.466 51.8363 203.964 50.5437C210.463 49.2511 217.199 49.9145 223.32 52.45C229.441 54.9856 234.673 59.2794 238.354 64.7884C242.035 70.2974 244 76.7743 244 83.4C244 92.2848 240.471 100.806 234.188 107.088C227.906 113.371 219.385 116.9 210.5 116.9ZM210.5 55.9C205.061 55.9 199.744 57.5128 195.222 60.5346C190.699 63.5563 187.175 67.8512 185.093 72.8762C183.012 77.9012 182.467 83.4305 183.528 88.765C184.59 94.0995 187.209 98.9995 191.055 102.845C194.901 106.691 199.801 109.311 205.135 110.372C210.47 111.433 215.999 110.888 221.024 108.807C226.049 106.725 230.344 103.201 233.365 98.6782C236.387 94.1558 238 88.839 238 83.4C238 76.1065 235.103 69.1118 229.945 63.9546C224.788 58.7973 217.793 55.9 210.5 55.9Z" fill="#0065FF"/>
<path d="M38.7998 197.5C55.6445 197.5 69.2998 183.845 69.2998 167C69.2998 150.155 55.6445 136.5 38.7998 136.5C21.9551 136.5 8.2998 150.155 8.2998 167C8.2998 183.845 21.9551 197.5 38.7998 197.5Z" fill="#E5E8EC"/>
<path d="M53.1994 179.9H35.3994V185.9H53.1994V179.9Z" fill="white"/>
<path d="M53.1994 161.1H35.3994V167.1H53.1994V161.1Z" fill="white"/>
<path d="M52.3994 142.2H35.3994V148.2H52.3994V142.2Z" fill="white"/>
<path opacity="0.2" d="M43.2998 136.8C34.6259 137.088 26.3385 140.457 19.9243 146.303C13.51 152.15 9.38877 160.09 8.2998 168.7C8.63552 174.729 10.7534 180.523 14.385 185.347C18.0167 190.172 22.9987 193.81 28.6998 195.8C25.5373 193.824 22.808 191.227 20.6768 188.167C18.5456 185.107 17.0566 181.646 16.2999 177.995C15.5431 174.343 15.5342 170.576 16.2737 166.921C17.0132 163.266 18.4858 159.798 20.6025 156.728C22.7193 153.658 25.4362 151.048 28.5894 149.057C31.7426 147.066 35.2666 145.735 38.9486 145.143C42.6306 144.552 46.3943 144.713 50.0125 145.616C53.6306 146.52 57.0281 148.147 59.9998 150.4C63.4647 152.744 66.3397 155.859 68.3998 159.5C66.889 153.679 63.7072 148.428 59.2469 144.394C54.7865 140.36 49.2429 137.72 43.2998 136.8Z" fill="#091E42"/>
<path d="M38.7998 200.5C32.1741 200.5 25.6973 198.535 20.1882 194.854C14.6792 191.173 10.3854 185.941 7.84986 179.82C5.31432 173.699 4.65091 166.963 5.94351 160.464C7.23612 153.966 10.4267 147.997 15.1117 143.312C19.7968 138.627 25.7659 135.436 32.2643 134.144C38.7627 132.851 45.4984 133.514 51.6197 136.05C57.741 138.586 62.973 142.879 66.654 148.388C70.3351 153.897 72.2998 160.374 72.2998 167C72.2998 175.885 68.7704 184.406 62.4879 190.688C56.2054 196.971 47.6846 200.5 38.7998 200.5ZM38.7998 139.5C33.3608 139.5 28.044 141.113 23.5216 144.135C18.9993 147.156 15.4745 151.451 13.3931 156.476C11.3117 161.501 10.7671 167.031 11.8282 172.365C12.8893 177.699 15.5084 182.599 19.3544 186.445C23.2003 190.291 28.1004 192.91 33.4348 193.972C38.7693 195.033 44.2986 194.488 49.3236 192.407C54.3486 190.325 58.6435 186.801 61.6652 182.278C64.687 177.756 66.2998 172.439 66.2998 167C66.2998 159.707 63.4025 152.712 58.2453 147.555C53.088 142.397 46.0933 139.5 38.7998 139.5Z" fill="#0065FF"/>
<path d="M233.287 103.512L229.044 107.755L243.865 122.576L248.108 118.333L233.287 103.512Z" fill="#0065FF"/>
</g>
<defs>
<linearGradient id="paint0_linear_746_11641" x1="118.72" y1="166.51" x2="118.72" y2="16.86" gradientUnits="userSpaceOnUse">
<stop stop-color="#E5E8EC" stop-opacity="0.1"/>
<stop offset="0.08" stop-color="#E1E4E9" stop-opacity="0.27"/>
<stop offset="0.18" stop-color="#DCE0E5" stop-opacity="0.46"/>
<stop offset="0.29" stop-color="#D8DCE2" stop-opacity="0.63"/>
<stop offset="0.4" stop-color="#D5D9DF" stop-opacity="0.76"/>
<stop offset="0.53" stop-color="#D2D7DD" stop-opacity="0.87"/>
<stop offset="0.66" stop-color="#D0D5DC" stop-opacity="0.94"/>
<stop offset="0.8" stop-color="#CFD4DB" stop-opacity="0.99"/>
<stop offset="1" stop-color="#CFD4DB"/>
</linearGradient>
<linearGradient id="paint1_linear_746_11641" x1="81.31" y1="149.99" x2="231.63" y2="-0.340001" gradientUnits="userSpaceOnUse">
<stop stop-color="#354D17"/>
<stop offset="0.58" stop-color="#194E2E"/>
<stop offset="0.78" stop-color="#205425"/>
<stop offset="0.93" stop-color="#325C2B"/>
<stop offset="1" stop-color="#346341"/>
</linearGradient>
<clipPath id="clip0_746_11641">
<rect width="248.1" height="210.9" fill="white"/>
</clipPath>
</defs>
</svg>
