<svg width="404" height="48" viewBox="0 0 404 48" fill="none" xmlns="http://www.w3.org/2000/svg">
<path d="M64.3999 20L70.1999 6H72.3999L78.1999 20H75.8999L74.3999 16.3H68.1999L66.6999 20H64.3999ZM71.2999 8.5L68.9999 14.3H73.5999L71.2999 8.5ZM81.8999 16V20H79.8999V10.4H81.8999V14.2H86.5999V10.4H88.5999V20H86.5999V16H81.8999ZM99.0999 20H97.0999V19L96.9999 19.1C96.8999 19.2 96.7999 19.3 96.5999 19.4C96.3999 19.5 96.1999 19.7 95.9999 19.8C95.7999 19.9 95.4999 20 95.1999 20.1C94.8999 20.2 94.4999 20.2 94.1999 20.2C93.1999 20.2 92.3999 19.9 91.7999 19.4C91.1999 18.8 90.7999 18.2 90.7999 17.5C90.7999 16.7 90.9999 16.1 91.4999 15.5C91.9999 15 92.6999 14.6 93.5999 14.5L97.0999 13.9C97.0999 13.4 96.8999 13 96.4999 12.6C96.0999 12.3 95.5999 12.1 95.0999 12.1C94.5999 12.1 94.0999 12.2 93.6999 12.4C93.2999 12.6 92.9999 12.8 92.8999 13L92.5999 13.3L91.2999 12C91.2999 11.9 91.3999 11.9 91.4999 11.8C91.5999 11.7 91.6999 11.6 91.9999 11.4C92.1999 11.2 92.4999 11 92.7999 10.8C93.0999 10.6 93.3999 10.5 93.8999 10.4C94.2999 10.3 94.7999 10.2 95.2999 10.2C96.4999 10.2 97.3999 10.5 98.1999 11.2C98.8999 11.9 99.2999 12.7 99.2999 13.8V20H99.0999ZM94.4999 18.4C95.2999 18.4 95.8999 18.2 96.3999 17.7C96.8999 17.2 97.0999 16.5 97.0999 15.6V15.4L93.9999 15.9C93.5999 16 93.3999 16.1 93.0999 16.3C92.8999 16.5 92.7999 16.8 92.7999 17.2C92.7999 17.5 92.9999 17.8 93.2999 18C93.5999 18.3 93.9999 18.4 94.4999 18.4ZM103 10.4H110.4V20H108.4V12.2H105V13.2C105 15 104.9 16.5 104.6 17.5C104.3 18.6 103.9 19.3 103.5 19.6C103.1 20 102.5 20.1 101.8 20.1C101.6 20.1 101.4 20.1 101.2 20.1C101 20.1 100.9 20 100.7 20H100.5V18.1C100.8 18.2 101 18.2 101.2 18.2C101.6 18.2 101.9 18.1 102.2 17.9C102.4 17.7 102.6 17.2 102.8 16.4C103 15.6 103 14.6 103 13.2V10.4ZM120.2 10.4H122V20H120V13.7L115 20H113.2V10.4H115.2V16.7L120.2 10.4ZM123.8 12.2V10.4H132.4V12.2H129.1V20H127.1V12.2H123.8ZM141.2 10.4H143V20H141V13.7L136 20H134.2V10.4H136.2V16.7L141.2 10.4ZM151.8 20V16.4C151.1 16.9 150.3 17.1 149.4 17.1C148.2 17.1 147.3 16.8 146.6 16.1C145.9 15.4 145.6 14.4 145.6 13.2V10.4H147.6V13.2C147.6 13.8 147.8 14.3 148.2 14.7C148.6 15.1 149.1 15.3 149.6 15.3C150 15.3 150.4 15.2 150.8 15.1C151.2 15 151.4 14.8 151.6 14.7L151.8 14.5V10.4H153.8V20H151.8ZM165.5 15.9H158C158.1 16.6 158.4 17.2 159 17.7C159.6 18.2 160.2 18.4 161 18.4C161.6 18.4 162.1 18.3 162.6 18C163.1 17.7 163.4 17.5 163.6 17.3L163.9 16.9L165.2 18.2C165.2 18.3 165.1 18.3 165 18.4C164.9 18.5 164.7 18.7 164.5 18.9C164.2 19.1 164 19.3 163.7 19.5C163.4 19.7 163 19.8 162.5 20C162 20.1 161.5 20.2 161 20.2C159.6 20.2 158.5 19.7 157.5 18.7C156.5 17.7 156 16.5 156 15.1C156 13.8 156.5 12.6 157.4 11.6C158.4 10.6 159.5 10.2 160.9 10.2C162.2 10.2 163.4 10.6 164.3 11.5C165.2 12.4 165.6 13.5 165.6 14.9L165.5 15.9ZM160.9 11.9C160.2 11.9 159.6 12.1 159.1 12.5C158.6 12.9 158.3 13.5 158.1 14.2H163.7C163.6 13.5 163.3 13 162.8 12.5C162.3 12.1 161.7 11.9 160.9 11.9ZM168.7 18.7C167.7 17.7 167.2 16.5 167.2 15.2C167.2 13.9 167.7 12.7 168.7 11.7C169.7 10.7 170.9 10.2 172.2 10.2C172.9 10.2 173.6 10.4 174.3 10.7C174.9 11 175.4 11.3 175.7 11.7L176.1 12.2L174.8 13.5C174.7 13.4 174.6 13.3 174.5 13.1C174.4 12.9 174.1 12.7 173.6 12.5C173.2 12.2 172.7 12.1 172.2 12.1C171.4 12.1 170.7 12.4 170.1 13C169.5 13.6 169.2 14.4 169.2 15.3C169.2 16.2 169.5 16.9 170.1 17.6C170.7 18.2 171.4 18.5 172.2 18.5C172.7 18.5 173.2 18.4 173.6 18.1C174.1 17.8 174.4 17.6 174.6 17.4L174.9 17L176.2 18.3C176.2 18.4 176.1 18.4 176 18.5C175.9 18.6 175.8 18.8 175.5 19C175.2 19.2 175 19.4 174.7 19.6C174.4 19.8 174 19.9 173.6 20.1C173.1 20.2 172.7 20.3 172.2 20.3C170.9 20.2 169.7 19.7 168.7 18.7ZM186.7 10.4L183 14.4L187 20H184.8L181.7 15.7L180.2 17.3V20H178.2V10.4H180.2V14.7L184.3 10.4H186.7ZM195.6 10.4H197.4V20H195.4V13.7L190.4 20H188.6V10.4H190.6V16.7L195.6 10.4ZM207.2 10.4H209V20H207V13.7L202 20H200.2V10.4H202.2V16.7L207.2 10.4ZM203.6 7C203.9 7.3 204.2 7.4 204.6 7.4C205 7.4 205.3 7.3 205.6 7C205.9 6.7 206 6.4 206 6H207.5C207.5 6.8 207.2 7.5 206.7 8C206.2 8.5 205.5 8.8 204.6 8.8C203.8 8.8 203.1 8.5 202.5 8C202 7.5 201.7 6.8 201.7 6H203.2C203.2 6.4 203.3 6.7 203.6 7ZM215.8 20V10.4H217.8V18.2H222.3V10.4H224.3V18.2H225.7V22.4H223.7V20H215.8ZM236.6 15.9H229.1C229.2 16.6 229.5 17.2 230.1 17.7C230.7 18.2 231.3 18.4 232.1 18.4C232.7 18.4 233.2 18.3 233.7 18C234.2 17.7 234.5 17.5 234.7 17.3L235 16.9L236.3 18.2C236.3 18.3 236.2 18.3 236.1 18.4C236 18.5 235.8 18.7 235.6 18.9C235.3 19.1 235 19.3 234.7 19.5C234.4 19.7 234 19.8 233.5 20C233 20.1 232.5 20.2 232 20.2C230.6 20.2 229.5 19.7 228.5 18.7C227.5 17.7 227 16.5 227 15.1C227 13.8 227.5 12.6 228.4 11.6C229.4 10.6 230.5 10.2 231.9 10.2C233.2 10.2 234.4 10.6 235.3 11.5C236.2 12.4 236.6 13.5 236.6 14.9V15.9ZM232 11.9C231.3 11.9 230.7 12.1 230.2 12.5C229.7 12.9 229.4 13.5 229.2 14.2H234.8C234.7 13.5 234.4 13 233.9 12.5C233.3 12.1 232.7 11.9 232 11.9ZM240.9 16V20H238.9V10.4H240.9V14.2H245.6V10.4H247.6V20H245.6V16H240.9ZM249.4 12.2V10.4H258V12.2H254.7V20H252.7V12.2H249.4ZM264.9 20.2C264.5 20.2 264.2 20.2 263.9 20.1C263.6 20 263.3 19.9 263 19.8C262.8 19.7 262.5 19.5 262.4 19.4C262.2 19.3 262.1 19.2 262 19.1L261.9 19V24.3H259.9V10.4H261.9V11.5C262 11.4 262.1 11.3 262.3 11.1C262.5 11 262.8 10.8 263.4 10.5C263.9 10.3 264.5 10.1 265.1 10.1C266.4 10.1 267.5 10.6 268.4 11.6C269.3 12.6 269.8 13.7 269.8 15.1C269.8 16.5 269.3 17.7 268.4 18.6C267.3 19.7 266.2 20.2 264.9 20.2ZM266.7 12.9C266.1 12.3 265.4 12 264.7 12C263.9 12 263.3 12.3 262.7 12.9C262.1 13.5 261.8 14.3 261.8 15.2C261.8 16.1 262.1 16.8 262.7 17.5C263.3 18.2 264 18.4 264.7 18.4C265.5 18.4 266.1 18.1 266.7 17.5C267.3 16.9 267.6 16.1 267.6 15.2C267.6 14.3 267.3 13.6 266.7 12.9ZM283.8 12.8L289.2 6H291.1V20H288.9V9.8L283.8 16.2L278.7 9.8V20H276.5V6H278.4L283.8 12.8ZM300.9 17.5C301.5 16.9 301.8 16.1 301.8 15.2C301.8 14.3 301.5 13.5 300.9 12.9C300.3 12.3 299.6 12 298.8 12C298 12 297.3 12.3 296.7 12.9C296.1 13.5 295.8 14.3 295.8 15.2C295.8 16.1 296.1 16.8 296.7 17.5C297.3 18.1 298 18.4 298.8 18.4C299.6 18.4 300.3 18.1 300.9 17.5ZM295.3 18.7C294.3 17.7 293.8 16.5 293.8 15.2C293.8 13.9 294.3 12.7 295.3 11.7C296.3 10.7 297.5 10.2 298.8 10.2C300.1 10.2 301.3 10.7 302.3 11.7C303.3 12.7 303.8 13.9 303.8 15.2C303.8 16.5 303.3 17.7 302.3 18.7C301.3 19.7 300.1 20.2 298.8 20.2C297.4 20.2 296.3 19.7 295.3 18.7ZM306.9 18.7C305.9 17.7 305.4 16.5 305.4 15.2C305.4 13.9 305.9 12.7 306.9 11.7C307.9 10.7 309.1 10.2 310.4 10.2C311.1 10.2 311.8 10.4 312.5 10.7C313.1 11 313.6 11.3 313.9 11.7L314.3 12.2L313 13.5C312.9 13.4 312.8 13.3 312.7 13.1C312.6 12.9 312.3 12.7 311.8 12.5C311.4 12.2 310.9 12.1 310.4 12.1C309.6 12.1 308.9 12.4 308.3 13C307.7 13.6 307.4 14.4 307.4 15.3C307.4 16.2 307.7 16.9 308.3 17.6C308.9 18.2 309.6 18.5 310.4 18.5C310.9 18.5 311.4 18.4 311.8 18.1C312.2 17.8 312.6 17.6 312.8 17.4L313.1 17L314.4 18.3C314.4 18.4 314.3 18.4 314.2 18.5C314.1 18.6 314 18.8 313.7 19C313.4 19.2 313.2 19.4 312.9 19.6C312.6 19.8 312.2 19.9 311.8 20.1C311.3 20.2 310.9 20.3 310.4 20.3C309 20.2 307.9 19.7 306.9 18.7ZM324.9 10.4L321.2 14.4L325.2 20H323L319.9 15.7L318.4 17.3V20H316.4V10.4H318.4V14.7L322.5 10.4H324.9ZM326.8 10.4H331.4C332.3 10.4 333 10.6 333.6 11.1C334.1 11.6 334.4 12.2 334.4 12.9C334.4 13.3 334.3 13.7 334.1 14C333.9 14.3 333.7 14.6 333.6 14.7L333.3 14.9C333.3 14.9 333.4 14.9 333.5 15C333.6 15 333.7 15.1 333.9 15.3C334.1 15.4 334.3 15.6 334.4 15.7C334.5 15.9 334.7 16.1 334.8 16.3C334.9 16.6 335 16.9 335 17.2C335 18 334.7 18.7 334.1 19.2C333.5 19.7 332.7 20 331.7 20H326.9V10.4H326.8ZM331.6 15.7H328.8V18.3H331.6C332 18.3 332.3 18.2 332.5 17.9C332.7 17.7 332.9 17.3 332.9 17C332.9 16.6 332.8 16.3 332.5 16.1C332.2 15.9 332 15.7 331.6 15.7ZM332.1 13.8C332.3 13.6 332.4 13.4 332.4 13.1C332.4 12.8 332.3 12.5 332.1 12.4C331.9 12.2 331.7 12.1 331.4 12.1H328.8V14.1H331.4C331.7 14.1 331.9 14 332.1 13.8ZM339.1 18.3H341.2C341.7 18.3 342 18.1 342.3 17.8C342.6 17.5 342.8 17.1 342.8 16.7C342.8 16.3 342.6 15.9 342.3 15.6C342 15.3 341.6 15.1 341.2 15.1H339.1V18.3ZM343.8 14.3C344.5 14.9 344.8 15.7 344.8 16.7C344.8 17.7 344.5 18.4 343.8 19.1C343.1 19.7 342.3 20 341.2 20H337.1V10.4H339.1V13.4H341.2C342.2 13.4 343.1 13.7 343.8 14.3ZM348.2 10.4V20H346.2V10.4H348.2Z" fill="#172B4D"/>
<path d="M0 9.2C0 4.1 3.9 0 8.8 0H39.2C44.1 0 48 4.1 48 9.2V38.8C48 43.9 44.1 48 39.2 48H8.8C3.9 48 0 43.9 0 38.8V9.2Z" fill="url(#paint0_linear_735_6839)"/>
<path fill-rule="evenodd" clip-rule="evenodd" d="M43.7 5.90001C44.2 6.20001 44.5 6.60001 44.7 7.20001C44.8 7.70001 44.8 8.30001 44.5 8.80001L29.8 34.5L24.8 28L18.9 38L13.8 31.4L7.8 40.1C7.6 40.3 7.4 40.5 7.2 40.7C7 40.9 6.7 41 6.4 41C6.1 41 5.9 41 5.6 41C5.3 40.9 5.1 40.8 4.9 40.7C4.7 40.5 4.5 40.3 4.3 40.1C4.2 39.9 4.1 39.6 4 39.3C4 39 4 38.7 4 38.5C4.1 38.2 4.2 38 4.3 37.7L13.5 24.3L18.3 30.6L24.2 20.7L29.1 27.1L40.9 6.70001C41 6.50001 41.2 6.20001 41.4 6.10001C41.6 5.90001 41.9 5.80001 42.1 5.70001C42.4 5.60001 42.6 5.60001 42.9 5.60001C43.2 5.70001 43.5 5.80001 43.7 5.90001Z" fill="white"/>
<path d="M73.232 38.272C73.3493 38.272 73.4533 38.3173 73.544 38.408L74.392 39.328C73.9227 39.9093 73.344 40.3547 72.656 40.664C71.9733 40.9733 71.152 41.128 70.192 41.128C69.3333 41.128 68.56 40.9813 67.872 40.688C67.1893 40.3947 66.6053 39.9867 66.12 39.464C65.6347 38.9413 65.2613 38.3173 65 37.592C64.744 36.8667 64.616 36.0747 64.616 35.216C64.616 34.3467 64.7547 33.552 65.032 32.832C65.3093 32.1067 65.6987 31.4827 66.2 30.96C66.7067 30.4373 67.3093 30.032 68.008 29.744C68.7067 29.4507 69.48 29.304 70.328 29.304C71.1707 29.304 71.9173 29.4427 72.568 29.72C73.224 29.9973 73.7813 30.36 74.24 30.808L73.52 31.808C73.4773 31.872 73.4213 31.928 73.352 31.976C73.288 32.024 73.1973 32.048 73.08 32.048C73 32.048 72.9173 32.0267 72.832 31.984C72.7467 31.936 72.6533 31.88 72.552 31.816C72.4507 31.7467 72.3333 31.672 72.2 31.592C72.0667 31.512 71.912 31.44 71.736 31.376C71.56 31.3067 71.3547 31.2507 71.12 31.208C70.8907 31.16 70.624 31.136 70.32 31.136C69.8027 31.136 69.328 31.2293 68.896 31.416C68.4693 31.5973 68.1013 31.864 67.792 32.216C67.4827 32.5627 67.2427 32.9893 67.072 33.496C66.9013 33.9973 66.816 34.5707 66.816 35.216C66.816 35.8667 66.9067 36.4453 67.088 36.952C67.2747 37.4587 67.5253 37.8853 67.84 38.232C68.1547 38.5787 68.5253 38.8453 68.952 39.032C69.3787 39.2133 69.8373 39.304 70.328 39.304C70.6213 39.304 70.8853 39.288 71.12 39.256C71.36 39.224 71.5787 39.1733 71.776 39.104C71.9787 39.0347 72.168 38.9467 72.344 38.84C72.5253 38.728 72.704 38.592 72.88 38.432C72.9333 38.384 72.9893 38.3467 73.048 38.32C73.1067 38.288 73.168 38.272 73.232 38.272ZM80.6703 35.952C80.6703 35.696 80.6329 35.456 80.5583 35.232C80.4889 35.0027 80.3823 34.8027 80.2383 34.632C80.0943 34.4613 79.9103 34.328 79.6863 34.232C79.4676 34.1307 79.2116 34.08 78.9183 34.08C78.3476 34.08 77.8969 34.2427 77.5663 34.568C77.2409 34.8933 77.0329 35.3547 76.9423 35.952H80.6703ZM76.9023 37.144C76.9343 37.5653 77.0089 37.9307 77.1263 38.24C77.2436 38.544 77.3983 38.7973 77.5903 39C77.7823 39.1973 78.0089 39.3467 78.2703 39.448C78.5369 39.544 78.8303 39.592 79.1503 39.592C79.4703 39.592 79.7449 39.5547 79.9743 39.48C80.2089 39.4053 80.4116 39.3227 80.5823 39.232C80.7583 39.1413 80.9103 39.0587 81.0383 38.984C81.1716 38.9093 81.2996 38.872 81.4223 38.872C81.5876 38.872 81.7103 38.9333 81.7903 39.056L82.3583 39.776C82.1396 40.032 81.8943 40.248 81.6223 40.424C81.3503 40.5947 81.0649 40.7333 80.7663 40.84C80.4729 40.9413 80.1716 41.0133 79.8623 41.056C79.5583 41.0987 79.2623 41.12 78.9743 41.12C78.4036 41.12 77.8729 41.0267 77.3823 40.84C76.8916 40.648 76.4649 40.368 76.1023 40C75.7396 39.6267 75.4543 39.168 75.2463 38.624C75.0383 38.0747 74.9342 37.44 74.9342 36.72C74.9342 36.16 75.0249 35.6347 75.2063 35.144C75.3876 34.648 75.6463 34.2187 75.9823 33.856C76.3236 33.488 76.7369 33.1973 77.2223 32.984C77.7129 32.7707 78.2649 32.664 78.8783 32.664C79.3956 32.664 79.8729 32.7467 80.3103 32.912C80.7476 33.0773 81.1236 33.32 81.4383 33.64C81.7529 33.9547 81.9983 34.344 82.1743 34.808C82.3556 35.2667 82.4462 35.792 82.4462 36.384C82.4462 36.6827 82.4143 36.8853 82.3503 36.992C82.2863 37.0933 82.1636 37.144 81.9823 37.144H76.9023ZM85.9051 38.872C86.1291 39.144 86.3718 39.336 86.6331 39.448C86.8998 39.56 87.1878 39.616 87.4971 39.616C87.7958 39.616 88.0651 39.56 88.3051 39.448C88.5451 39.336 88.7478 39.1653 88.9131 38.936C89.0838 38.7067 89.2145 38.4187 89.3051 38.072C89.3958 37.72 89.4411 37.3067 89.4411 36.832C89.4411 36.352 89.4011 35.9467 89.3211 35.616C89.2465 35.28 89.1371 35.008 88.9931 34.8C88.8491 34.592 88.6731 34.44 88.4651 34.344C88.2625 34.248 88.0305 34.2 87.7691 34.2C87.3585 34.2 87.0091 34.288 86.7211 34.464C86.4331 34.6347 86.1611 34.8773 85.9051 35.192V38.872ZM85.8011 33.912C86.1371 33.5333 86.5185 33.2267 86.9451 32.992C87.3718 32.7573 87.8731 32.64 88.4491 32.64C88.8971 32.64 89.3051 32.7333 89.6731 32.92C90.0465 33.1067 90.3665 33.3787 90.6331 33.736C90.9051 34.088 91.1131 34.5253 91.2571 35.048C91.4065 35.5653 91.4811 36.16 91.4811 36.832C91.4811 37.4453 91.3985 38.0133 91.2331 38.536C91.0678 39.0587 90.8305 39.512 90.5211 39.896C90.2171 40.28 89.8465 40.5813 89.4091 40.8C88.9771 41.0133 88.4918 41.12 87.9531 41.12C87.4945 41.12 87.1025 41.0507 86.7771 40.912C86.4518 40.768 86.1611 40.5707 85.9051 40.32V43.68H83.9291V32.792H85.1371C85.3931 32.792 85.5611 32.912 85.6411 33.152L85.8011 33.912ZM96.3593 39.648C96.7753 39.648 97.1033 39.5467 97.3433 39.344C97.5886 39.1413 97.7113 38.864 97.7113 38.512C97.7113 38.3627 97.6899 38.224 97.6473 38.096C97.6099 37.9627 97.5406 37.848 97.4393 37.752C97.3379 37.656 97.1993 37.5813 97.0233 37.528C96.8526 37.4747 96.6339 37.448 96.3673 37.448H94.8873V39.648H96.3593ZM94.8873 34.08V36.232H96.1833C96.3753 36.232 96.5513 36.2053 96.7113 36.152C96.8713 36.0933 97.0099 36.0133 97.1273 35.912C97.2446 35.8053 97.3353 35.6827 97.3993 35.544C97.4633 35.4 97.4953 35.2427 97.4953 35.072C97.4953 34.9493 97.4739 34.8293 97.4313 34.712C97.3886 34.5893 97.3166 34.4827 97.2153 34.392C97.1139 34.296 96.9779 34.2213 96.8073 34.168C96.6419 34.1093 96.4339 34.08 96.1833 34.08H94.8873ZM96.2393 32.792C96.7566 32.792 97.2019 32.8427 97.5753 32.944C97.9539 33.0453 98.2659 33.184 98.5113 33.36C98.7566 33.536 98.9379 33.7467 99.0553 33.992C99.1726 34.232 99.2313 34.4933 99.2313 34.776C99.2313 34.952 99.2073 35.136 99.1593 35.328C99.1166 35.5147 99.0366 35.696 98.9193 35.872C98.8073 36.048 98.6526 36.208 98.4553 36.352C98.2579 36.496 98.0073 36.608 97.7033 36.688C97.9753 36.7467 98.2233 36.8293 98.4473 36.936C98.6713 37.0373 98.8633 37.168 99.0233 37.328C99.1833 37.4827 99.3059 37.6667 99.3913 37.88C99.4819 38.088 99.5273 38.3227 99.5273 38.584C99.5273 39 99.4393 39.36 99.2633 39.664C99.0926 39.968 98.8606 40.2187 98.5673 40.416C98.2793 40.6133 97.9433 40.76 97.5593 40.856C97.1806 40.952 96.7833 41 96.3673 41H93.0073V32.792H96.2393ZM108.43 32.792V41H106.454V36.208C106.454 36.0853 106.459 35.952 106.47 35.808C106.486 35.6587 106.505 35.5093 106.526 35.36C106.419 35.6053 106.302 35.8213 106.174 36.008C106.163 36.0187 106.11 36.0933 106.014 36.232C105.918 36.3653 105.793 36.5387 105.638 36.752C105.489 36.9653 105.318 37.208 105.126 37.48C104.934 37.7467 104.739 38.0187 104.542 38.296C104.078 38.952 103.553 39.6933 102.966 40.52C102.891 40.632 102.793 40.7413 102.67 40.848C102.553 40.9547 102.417 41.008 102.262 41.008H101.054V32.8H103.03V37.592C103.03 37.7147 103.022 37.8507 103.006 38C102.995 38.144 102.979 38.2907 102.958 38.44C103.075 38.1787 103.193 37.9627 103.31 37.792C103.315 37.7813 103.366 37.7093 103.462 37.576C103.558 37.4427 103.681 37.2693 103.83 37.056C103.985 36.8427 104.158 36.6027 104.35 36.336C104.542 36.064 104.737 35.7867 104.934 35.504C105.398 34.848 105.926 34.1067 106.518 33.28C106.593 33.1627 106.691 33.0533 106.814 32.952C106.937 32.8453 107.075 32.792 107.23 32.792H108.43ZM116.262 34.528C116.204 34.6027 116.145 34.6613 116.086 34.704C116.033 34.7467 115.953 34.768 115.846 34.768C115.745 34.768 115.646 34.7387 115.55 34.68C115.454 34.616 115.34 34.5467 115.206 34.472C115.073 34.392 114.913 34.3227 114.726 34.264C114.545 34.2 114.318 34.168 114.046 34.168C113.7 34.168 113.396 34.232 113.134 34.36C112.873 34.4827 112.654 34.6613 112.478 34.896C112.308 35.1307 112.18 35.416 112.094 35.752C112.009 36.0827 111.966 36.4587 111.966 36.88C111.966 37.3173 112.012 37.7067 112.102 38.048C112.198 38.3893 112.334 38.6773 112.51 38.912C112.686 39.1413 112.9 39.3173 113.15 39.44C113.401 39.5573 113.684 39.616 113.998 39.616C114.313 39.616 114.566 39.5787 114.758 39.504C114.956 39.424 115.121 39.3387 115.254 39.248C115.388 39.152 115.502 39.0667 115.598 38.992C115.7 38.912 115.812 38.872 115.934 38.872C116.094 38.872 116.214 38.9333 116.294 39.056L116.862 39.776C116.644 40.032 116.406 40.248 116.15 40.424C115.894 40.5947 115.628 40.7333 115.35 40.84C115.078 40.9413 114.796 41.0133 114.502 41.056C114.214 41.0987 113.926 41.12 113.638 41.12C113.132 41.12 112.654 41.0267 112.206 40.84C111.758 40.648 111.366 40.3707 111.03 40.008C110.694 39.6453 110.428 39.2027 110.23 38.68C110.038 38.152 109.942 37.552 109.942 36.88C109.942 36.2773 110.028 35.72 110.198 35.208C110.374 34.6907 110.63 34.2453 110.966 33.872C111.302 33.4933 111.718 33.1973 112.214 32.984C112.71 32.7707 113.281 32.664 113.926 32.664C114.54 32.664 115.076 32.7627 115.534 32.96C115.998 33.1573 116.414 33.44 116.782 33.808L116.262 34.528ZM123.968 38.872C124.192 39.144 124.434 39.336 124.696 39.448C124.962 39.56 125.25 39.616 125.56 39.616C125.858 39.616 126.128 39.56 126.368 39.448C126.608 39.336 126.81 39.1653 126.976 38.936C127.146 38.7067 127.277 38.4187 127.368 38.072C127.458 37.72 127.504 37.3067 127.504 36.832C127.504 36.352 127.464 35.9467 127.384 35.616C127.309 35.28 127.2 35.008 127.056 34.8C126.912 34.592 126.736 34.44 126.528 34.344C126.325 34.248 126.093 34.2 125.832 34.2C125.421 34.2 125.072 34.288 124.784 34.464C124.496 34.6347 124.224 34.8773 123.968 35.192V38.872ZM123.864 33.912C124.2 33.5333 124.581 33.2267 125.008 32.992C125.434 32.7573 125.936 32.64 126.512 32.64C126.96 32.64 127.368 32.7333 127.736 32.92C128.109 33.1067 128.429 33.3787 128.696 33.736C128.968 34.088 129.176 34.5253 129.32 35.048C129.469 35.5653 129.544 36.16 129.544 36.832C129.544 37.4453 129.461 38.0133 129.296 38.536C129.13 39.0587 128.893 39.512 128.584 39.896C128.28 40.28 127.909 40.5813 127.472 40.8C127.04 41.0133 126.554 41.12 126.016 41.12C125.557 41.12 125.165 41.0507 124.84 40.912C124.514 40.768 124.224 40.5707 123.968 40.32V43.68H121.992V32.792H123.2C123.456 32.792 123.624 32.912 123.704 33.152L123.864 33.912ZM135.406 37.496C134.835 37.5227 134.355 37.5733 133.966 37.648C133.576 37.7173 133.264 37.808 133.03 37.92C132.795 38.032 132.627 38.1627 132.526 38.312C132.424 38.4613 132.374 38.624 132.374 38.8C132.374 39.1467 132.475 39.3947 132.678 39.544C132.886 39.6933 133.155 39.768 133.486 39.768C133.891 39.768 134.24 39.696 134.534 39.552C134.832 39.4027 135.123 39.1787 135.406 38.88V37.496ZM130.878 33.936C131.822 33.072 132.958 32.64 134.286 32.64C134.766 32.64 135.195 32.72 135.574 32.88C135.952 33.0347 136.272 33.2533 136.534 33.536C136.795 33.8133 136.992 34.1467 137.126 34.536C137.264 34.9253 137.334 35.352 137.334 35.816V41H136.438C136.251 41 136.107 40.9733 136.006 40.92C135.904 40.8613 135.824 40.7467 135.766 40.576L135.59 39.984C135.382 40.1707 135.179 40.336 134.982 40.48C134.784 40.6187 134.579 40.736 134.366 40.832C134.152 40.928 133.923 41 133.678 41.048C133.438 41.1013 133.171 41.128 132.878 41.128C132.531 41.128 132.211 41.0827 131.918 40.992C131.624 40.896 131.371 40.7547 131.158 40.568C130.944 40.3813 130.779 40.1493 130.662 39.872C130.544 39.5947 130.486 39.272 130.486 38.904C130.486 38.696 130.52 38.4907 130.59 38.288C130.659 38.08 130.771 37.8827 130.926 37.696C131.086 37.5093 131.291 37.3333 131.542 37.168C131.792 37.0027 132.099 36.8587 132.462 36.736C132.83 36.6133 133.256 36.5147 133.742 36.44C134.227 36.36 134.782 36.312 135.406 36.296V35.816C135.406 35.2667 135.288 34.8613 135.054 34.6C134.819 34.3333 134.48 34.2 134.038 34.2C133.718 34.2 133.451 34.2373 133.238 34.312C133.03 34.3867 132.846 34.472 132.686 34.568C132.526 34.6587 132.379 34.7413 132.246 34.816C132.118 34.8907 131.974 34.928 131.814 34.928C131.675 34.928 131.558 34.8933 131.462 34.824C131.366 34.7493 131.288 34.664 131.23 34.568L130.878 33.936ZM145.075 34.528C145.016 34.6027 144.957 34.6613 144.899 34.704C144.845 34.7467 144.765 34.768 144.659 34.768C144.557 34.768 144.459 34.7387 144.363 34.68C144.267 34.616 144.152 34.5467 144.019 34.472C143.885 34.392 143.725 34.3227 143.539 34.264C143.357 34.2 143.131 34.168 142.859 34.168C142.512 34.168 142.208 34.232 141.947 34.36C141.685 34.4827 141.467 34.6613 141.291 34.896C141.12 35.1307 140.992 35.416 140.907 35.752C140.821 36.0827 140.779 36.4587 140.779 36.88C140.779 37.3173 140.824 37.7067 140.915 38.048C141.011 38.3893 141.147 38.6773 141.323 38.912C141.499 39.1413 141.712 39.3173 141.963 39.44C142.213 39.5573 142.496 39.616 142.811 39.616C143.125 39.616 143.379 39.5787 143.571 39.504C143.768 39.424 143.933 39.3387 144.067 39.248C144.2 39.152 144.315 39.0667 144.411 38.992C144.512 38.912 144.624 38.872 144.747 38.872C144.907 38.872 145.027 38.9333 145.107 39.056L145.675 39.776C145.456 40.032 145.219 40.248 144.963 40.424C144.707 40.5947 144.44 40.7333 144.163 40.84C143.891 40.9413 143.608 41.0133 143.315 41.056C143.027 41.0987 142.739 41.12 142.451 41.12C141.944 41.12 141.467 41.0267 141.019 40.84C140.571 40.648 140.179 40.3707 139.843 40.008C139.507 39.6453 139.24 39.2027 139.043 38.68C138.851 38.152 138.755 37.552 138.755 36.88C138.755 36.2773 138.84 35.72 139.011 35.208C139.187 34.6907 139.443 34.2453 139.779 33.872C140.115 33.4933 140.531 33.1973 141.027 32.984C141.523 32.7707 142.093 32.664 142.739 32.664C143.352 32.664 143.888 32.7627 144.347 32.96C144.811 33.1573 145.227 33.44 145.595 33.808L145.075 34.528ZM153.394 32.792V41H151.418V37.776C150.714 37.9467 150.06 38.0453 149.458 38.072C148.855 38.0933 148.332 38.0213 147.89 37.856C147.452 37.6853 147.108 37.4107 146.858 37.032C146.612 36.6533 146.49 36.1493 146.49 35.52V32.792H148.466V35.216C148.466 35.552 148.519 35.824 148.626 36.032C148.738 36.2347 148.911 36.3813 149.146 36.472C149.386 36.5627 149.692 36.6 150.066 36.584C150.439 36.568 150.89 36.5067 151.418 36.4V32.792H153.394ZM160.639 35.952C160.639 35.696 160.602 35.456 160.527 35.232C160.458 35.0027 160.351 34.8027 160.207 34.632C160.063 34.4613 159.879 34.328 159.655 34.232C159.436 34.1307 159.18 34.08 158.887 34.08C158.316 34.08 157.866 34.2427 157.535 34.568C157.21 34.8933 157.002 35.3547 156.911 35.952H160.639ZM156.871 37.144C156.903 37.5653 156.978 37.9307 157.095 38.24C157.212 38.544 157.367 38.7973 157.559 39C157.751 39.1973 157.978 39.3467 158.239 39.448C158.506 39.544 158.799 39.592 159.119 39.592C159.439 39.592 159.714 39.5547 159.943 39.48C160.178 39.4053 160.38 39.3227 160.551 39.232C160.727 39.1413 160.879 39.0587 161.007 38.984C161.14 38.9093 161.268 38.872 161.391 38.872C161.556 38.872 161.679 38.9333 161.759 39.056L162.327 39.776C162.108 40.032 161.863 40.248 161.591 40.424C161.319 40.5947 161.034 40.7333 160.735 40.84C160.442 40.9413 160.14 41.0133 159.831 41.056C159.527 41.0987 159.231 41.12 158.943 41.12C158.372 41.12 157.842 41.0267 157.351 40.84C156.86 40.648 156.434 40.368 156.071 40C155.708 39.6267 155.423 39.168 155.215 38.624C155.007 38.0747 154.903 37.44 154.903 36.72C154.903 36.16 154.994 35.6347 155.175 35.144C155.356 34.648 155.615 34.2187 155.951 33.856C156.292 33.488 156.706 33.1973 157.191 32.984C157.682 32.7707 158.234 32.664 158.847 32.664C159.364 32.664 159.842 32.7467 160.279 32.912C160.716 33.0773 161.092 33.32 161.407 33.64C161.722 33.9547 161.967 34.344 162.143 34.808C162.324 35.2667 162.415 35.792 162.415 36.384C162.415 36.6827 162.383 36.8853 162.319 36.992C162.255 37.0933 162.132 37.144 161.951 37.144H156.871ZM158.383 30.664C158.383 30.8133 158.354 30.9547 158.295 31.088C158.236 31.216 158.154 31.328 158.047 31.424C157.946 31.52 157.826 31.5973 157.687 31.656C157.554 31.7093 157.41 31.736 157.255 31.736C157.111 31.736 156.972 31.7093 156.839 31.656C156.711 31.5973 156.596 31.52 156.495 31.424C156.399 31.328 156.322 31.216 156.263 31.088C156.204 30.9547 156.175 30.8133 156.175 30.664C156.175 30.5093 156.204 30.3653 156.263 30.232C156.322 30.0933 156.399 29.9733 156.495 29.872C156.596 29.7707 156.711 29.6907 156.839 29.632C156.972 29.5733 157.111 29.544 157.255 29.544C157.41 29.544 157.554 29.5733 157.687 29.632C157.826 29.6907 157.946 29.7707 158.047 29.872C158.154 29.9733 158.236 30.0933 158.295 30.232C158.354 30.3653 158.383 30.5093 158.383 30.664ZM161.615 30.664C161.615 30.8133 161.586 30.9547 161.527 31.088C161.468 31.216 161.388 31.328 161.287 31.424C161.191 31.52 161.074 31.5973 160.935 31.656C160.802 31.7093 160.658 31.736 160.503 31.736C160.354 31.736 160.212 31.7093 160.079 31.656C159.946 31.5973 159.828 31.52 159.727 31.424C159.631 31.328 159.554 31.216 159.495 31.088C159.436 30.9547 159.407 30.8133 159.407 30.664C159.407 30.5093 159.436 30.3653 159.495 30.232C159.554 30.0933 159.631 29.9733 159.727 29.872C159.828 29.7707 159.946 29.6907 160.079 29.632C160.212 29.5733 160.354 29.544 160.503 29.544C160.658 29.544 160.802 29.5733 160.935 29.632C161.074 29.6907 161.191 29.7707 161.287 29.872C161.388 29.9733 161.468 30.0933 161.527 30.232C161.586 30.3653 161.615 30.5093 161.615 30.664ZM170.875 34.256H167.947V41H165.971V34.256H163.051V32.792H170.875V34.256ZM176.328 37.496C175.757 37.5227 175.277 37.5733 174.888 37.648C174.498 37.7173 174.186 37.808 173.952 37.92C173.717 38.032 173.549 38.1627 173.448 38.312C173.346 38.4613 173.296 38.624 173.296 38.8C173.296 39.1467 173.397 39.3947 173.6 39.544C173.808 39.6933 174.077 39.768 174.408 39.768C174.813 39.768 175.162 39.696 175.456 39.552C175.754 39.4027 176.045 39.1787 176.328 38.88V37.496ZM171.8 33.936C172.744 33.072 173.88 32.64 175.208 32.64C175.688 32.64 176.117 32.72 176.496 32.88C176.874 33.0347 177.194 33.2533 177.456 33.536C177.717 33.8133 177.914 34.1467 178.048 34.536C178.186 34.9253 178.256 35.352 178.256 35.816V41H177.36C177.173 41 177.029 40.9733 176.928 40.92C176.826 40.8613 176.746 40.7467 176.688 40.576L176.512 39.984C176.304 40.1707 176.101 40.336 175.904 40.48C175.706 40.6187 175.501 40.736 175.288 40.832C175.074 40.928 174.845 41 174.6 41.048C174.36 41.1013 174.093 41.128 173.8 41.128C173.453 41.128 173.133 41.0827 172.84 40.992C172.546 40.896 172.293 40.7547 172.08 40.568C171.866 40.3813 171.701 40.1493 171.584 39.872C171.466 39.5947 171.408 39.272 171.408 38.904C171.408 38.696 171.442 38.4907 171.512 38.288C171.581 38.08 171.693 37.8827 171.848 37.696C172.008 37.5093 172.213 37.3333 172.464 37.168C172.714 37.0027 173.021 36.8587 173.384 36.736C173.752 36.6133 174.178 36.5147 174.664 36.44C175.149 36.36 175.704 36.312 176.328 36.296V35.816C176.328 35.2667 176.21 34.8613 175.976 34.6C175.741 34.3333 175.402 34.2 174.96 34.2C174.64 34.2 174.373 34.2373 174.16 34.312C173.952 34.3867 173.768 34.472 173.608 34.568C173.448 34.6587 173.301 34.7413 173.168 34.816C173.04 34.8907 172.896 34.928 172.736 34.928C172.597 34.928 172.48 34.8933 172.384 34.824C172.288 34.7493 172.21 34.664 172.152 34.568L171.8 33.936ZM189.887 34.528C189.829 34.6027 189.77 34.6613 189.711 34.704C189.658 34.7467 189.578 34.768 189.471 34.768C189.37 34.768 189.271 34.7387 189.175 34.68C189.079 34.616 188.965 34.5467 188.831 34.472C188.698 34.392 188.538 34.3227 188.351 34.264C188.17 34.2 187.943 34.168 187.671 34.168C187.325 34.168 187.021 34.232 186.759 34.36C186.498 34.4827 186.279 34.6613 186.103 34.896C185.933 35.1307 185.805 35.416 185.719 35.752C185.634 36.0827 185.591 36.4587 185.591 36.88C185.591 37.3173 185.637 37.7067 185.727 38.048C185.823 38.3893 185.959 38.6773 186.135 38.912C186.311 39.1413 186.525 39.3173 186.775 39.44C187.026 39.5573 187.309 39.616 187.623 39.616C187.938 39.616 188.191 39.5787 188.383 39.504C188.581 39.424 188.746 39.3387 188.879 39.248C189.013 39.152 189.127 39.0667 189.223 38.992C189.325 38.912 189.437 38.872 189.559 38.872C189.719 38.872 189.839 38.9333 189.919 39.056L190.487 39.776C190.269 40.032 190.031 40.248 189.775 40.424C189.519 40.5947 189.253 40.7333 188.975 40.84C188.703 40.9413 188.421 41.0133 188.127 41.056C187.839 41.0987 187.551 41.12 187.263 41.12C186.757 41.12 186.279 41.0267 185.831 40.84C185.383 40.648 184.991 40.3707 184.655 40.008C184.319 39.6453 184.053 39.2027 183.855 38.68C183.663 38.152 183.567 37.552 183.567 36.88C183.567 36.2773 183.653 35.72 183.823 35.208C183.999 34.6907 184.255 34.2453 184.591 33.872C184.927 33.4933 185.343 33.1973 185.839 32.984C186.335 32.7707 186.906 32.664 187.551 32.664C188.165 32.664 188.701 32.7627 189.159 32.96C189.623 33.1573 190.039 33.44 190.407 33.808L189.887 34.528ZM198.766 34.256H195.838V41H193.862V34.256H190.942V32.792H198.766V34.256ZM203.327 32.664C203.935 32.664 204.487 32.7627 204.983 32.96C205.484 33.1573 205.911 33.4373 206.263 33.8C206.62 34.1627 206.895 34.6053 207.087 35.128C207.279 35.6507 207.375 36.2347 207.375 36.88C207.375 37.5307 207.279 38.1173 207.087 38.64C206.895 39.1627 206.62 39.608 206.263 39.976C205.911 40.344 205.484 40.6267 204.983 40.824C204.487 41.0213 203.935 41.12 203.327 41.12C202.713 41.12 202.156 41.0213 201.655 40.824C201.153 40.6267 200.724 40.344 200.367 39.976C200.015 39.608 199.74 39.1627 199.543 38.64C199.351 38.1173 199.255 37.5307 199.255 36.88C199.255 36.2347 199.351 35.6507 199.543 35.128C199.74 34.6053 200.015 34.1627 200.367 33.8C200.724 33.4373 201.153 33.1573 201.655 32.96C202.156 32.7627 202.713 32.664 203.327 32.664ZM203.327 39.6C204.009 39.6 204.513 39.3707 204.839 38.912C205.169 38.4533 205.335 37.7813 205.335 36.896C205.335 36.0107 205.169 35.336 204.839 34.872C204.513 34.408 204.009 34.176 203.327 34.176C202.633 34.176 202.119 34.4107 201.783 34.88C201.452 35.344 201.287 36.016 201.287 36.896C201.287 37.776 201.452 38.448 201.783 38.912C202.119 39.3707 202.633 39.6 203.327 39.6ZM216.258 32.792V41H214.282V36.208C214.282 36.0853 214.288 35.952 214.298 35.808C214.314 35.6587 214.333 35.5093 214.354 35.36C214.248 35.6053 214.13 35.8213 214.002 36.008C213.992 36.0187 213.938 36.0933 213.842 36.232C213.746 36.3653 213.621 36.5387 213.466 36.752C213.317 36.9653 213.146 37.208 212.954 37.48C212.762 37.7467 212.568 38.0187 212.37 38.296C211.906 38.952 211.381 39.6933 210.794 40.52C210.72 40.632 210.621 40.7413 210.498 40.848C210.381 40.9547 210.245 41.008 210.09 41.008H208.882V32.8H210.858V37.592C210.858 37.7147 210.85 37.8507 210.834 38C210.824 38.144 210.808 38.2907 210.786 38.44C210.904 38.1787 211.021 37.9627 211.138 37.792C211.144 37.7813 211.194 37.7093 211.29 37.576C211.386 37.4427 211.509 37.2693 211.658 37.056C211.813 36.8427 211.986 36.6027 212.178 36.336C212.37 36.064 212.565 35.7867 212.762 35.504C213.226 34.848 213.754 34.1067 214.346 33.28C214.421 33.1627 214.52 33.0533 214.642 32.952C214.765 32.8453 214.904 32.792 215.058 32.792H216.258ZM227.722 32.776V41H225.938V36.424C225.938 36.2373 225.946 36.0267 225.962 35.792C225.984 35.5573 226.016 35.3387 226.058 35.136L223.642 39.568C223.525 39.7973 223.338 39.912 223.082 39.912H222.874C222.618 39.912 222.432 39.7973 222.314 39.568L219.866 35.112C219.904 35.3147 219.933 35.536 219.954 35.776C219.981 36.016 219.994 36.232 219.994 36.424V41H218.21V32.776H219.842C219.981 32.776 220.117 32.8053 220.25 32.864C220.389 32.9227 220.504 33.04 220.594 33.216L222.53 36.672C222.616 36.832 222.696 37.0027 222.77 37.184C222.845 37.36 222.914 37.5387 222.978 37.72C223.042 37.5387 223.109 37.3573 223.178 37.176C223.253 36.9947 223.333 36.8267 223.418 36.672L225.338 33.216C225.434 33.0347 225.549 32.9173 225.682 32.864C225.816 32.8053 225.952 32.776 226.09 32.776H227.722ZM233.311 32.664C233.919 32.664 234.471 32.7627 234.967 32.96C235.468 33.1573 235.895 33.4373 236.247 33.8C236.604 34.1627 236.879 34.6053 237.071 35.128C237.263 35.6507 237.359 36.2347 237.359 36.88C237.359 37.5307 237.263 38.1173 237.071 38.64C236.879 39.1627 236.604 39.608 236.247 39.976C235.895 40.344 235.468 40.6267 234.967 40.824C234.471 41.0213 233.919 41.12 233.311 41.12C232.698 41.12 232.14 41.0213 231.639 40.824C231.138 40.6267 230.708 40.344 230.351 39.976C229.999 39.608 229.724 39.1627 229.527 38.64C229.335 38.1173 229.239 37.5307 229.239 36.88C229.239 36.2347 229.335 35.6507 229.527 35.128C229.724 34.6053 229.999 34.1627 230.351 33.8C230.708 33.4373 231.138 33.1573 231.639 32.96C232.14 32.7627 232.698 32.664 233.311 32.664ZM233.311 39.6C233.994 39.6 234.498 39.3707 234.823 38.912C235.154 38.4533 235.319 37.7813 235.319 36.896C235.319 36.0107 235.154 35.336 234.823 34.872C234.498 34.408 233.994 34.176 233.311 34.176C232.618 34.176 232.103 34.4107 231.767 34.88C231.436 35.344 231.271 36.016 231.271 36.896C231.271 37.776 231.436 38.448 231.767 38.912C232.103 39.3707 232.618 39.6 233.311 39.6ZM244.747 34.528C244.688 34.6027 244.629 34.6613 244.571 34.704C244.517 34.7467 244.437 34.768 244.331 34.768C244.229 34.768 244.131 34.7387 244.035 34.68C243.939 34.616 243.824 34.5467 243.691 34.472C243.557 34.392 243.397 34.3227 243.211 34.264C243.029 34.2 242.803 34.168 242.531 34.168C242.184 34.168 241.88 34.232 241.619 34.36C241.357 34.4827 241.139 34.6613 240.963 34.896C240.792 35.1307 240.664 35.416 240.579 35.752C240.493 36.0827 240.451 36.4587 240.451 36.88C240.451 37.3173 240.496 37.7067 240.587 38.048C240.683 38.3893 240.819 38.6773 240.995 38.912C241.171 39.1413 241.384 39.3173 241.635 39.44C241.885 39.5573 242.168 39.616 242.483 39.616C242.797 39.616 243.051 39.5787 243.243 39.504C243.44 39.424 243.605 39.3387 243.739 39.248C243.872 39.152 243.987 39.0667 244.083 38.992C244.184 38.912 244.296 38.872 244.419 38.872C244.579 38.872 244.699 38.9333 244.779 39.056L245.347 39.776C245.128 40.032 244.891 40.248 244.635 40.424C244.379 40.5947 244.112 40.7333 243.835 40.84C243.563 40.9413 243.28 41.0133 242.987 41.056C242.699 41.0987 242.411 41.12 242.123 41.12C241.616 41.12 241.139 41.0267 240.691 40.84C240.243 40.648 239.851 40.3707 239.515 40.008C239.179 39.6453 238.912 39.2027 238.715 38.68C238.523 38.152 238.427 37.552 238.427 36.88C238.427 36.2773 238.512 35.72 238.683 35.208C238.859 34.6907 239.115 34.2453 239.451 33.872C239.787 33.4933 240.203 33.1973 240.699 32.984C241.195 32.7707 241.765 32.664 242.411 32.664C243.024 32.664 243.56 32.7627 244.019 32.96C244.483 33.1573 244.899 33.44 245.267 33.808L244.747 34.528ZM253.625 34.256H250.697V41H248.721V34.256H245.801V32.792H253.625V34.256ZM262.165 32.792V41H260.189V36.208C260.189 36.0853 260.194 35.952 260.205 35.808C260.221 35.6587 260.239 35.5093 260.261 35.36C260.154 35.6053 260.037 35.8213 259.909 36.008C259.898 36.0187 259.845 36.0933 259.749 36.232C259.653 36.3653 259.527 36.5387 259.373 36.752C259.223 36.9653 259.053 37.208 258.861 37.48C258.669 37.7467 258.474 38.0187 258.277 38.296C257.813 38.952 257.287 39.6933 256.701 40.52C256.626 40.632 256.527 40.7413 256.405 40.848C256.287 40.9547 256.151 41.008 255.997 41.008H254.789V32.8H256.765V37.592C256.765 37.7147 256.757 37.8507 256.741 38C256.73 38.144 256.714 38.2907 256.693 38.44C256.81 38.1787 256.927 37.9627 257.045 37.792C257.05 37.7813 257.101 37.7093 257.197 37.576C257.293 37.4427 257.415 37.2693 257.565 37.056C257.719 36.8427 257.893 36.6027 258.085 36.336C258.277 36.064 258.471 35.7867 258.669 35.504C259.133 34.848 259.661 34.1067 260.253 33.28C260.327 33.1627 260.426 33.0533 260.549 32.952C260.671 32.8453 260.81 32.792 260.965 32.792H262.165ZM275.159 32.792V41H273.183V37.368H269.983V41H268.007V32.792H269.983V35.904H273.183V32.792H275.159ZM282.405 35.952C282.405 35.696 282.367 35.456 282.293 35.232C282.223 35.0027 282.117 34.8027 281.973 34.632C281.829 34.4613 281.645 34.328 281.421 34.232C281.202 34.1307 280.946 34.08 280.653 34.08C280.082 34.08 279.631 34.2427 279.301 34.568C278.975 34.8933 278.767 35.3547 278.677 35.952H282.405ZM278.637 37.144C278.669 37.5653 278.743 37.9307 278.861 38.24C278.978 38.544 279.133 38.7973 279.325 39C279.517 39.1973 279.743 39.3467 280.005 39.448C280.271 39.544 280.565 39.592 280.885 39.592C281.205 39.592 281.479 39.5547 281.709 39.48C281.943 39.4053 282.146 39.3227 282.317 39.232C282.493 39.1413 282.645 39.0587 282.773 38.984C282.906 38.9093 283.034 38.872 283.157 38.872C283.322 38.872 283.445 38.9333 283.525 39.056L284.093 39.776C283.874 40.032 283.629 40.248 283.357 40.424C283.085 40.5947 282.799 40.7333 282.501 40.84C282.207 40.9413 281.906 41.0133 281.597 41.056C281.293 41.0987 280.997 41.12 280.709 41.12C280.138 41.12 279.607 41.0267 279.117 40.84C278.626 40.648 278.199 40.368 277.837 40C277.474 39.6267 277.189 39.168 276.981 38.624C276.773 38.0747 276.669 37.44 276.669 36.72C276.669 36.16 276.759 35.6347 276.941 35.144C277.122 34.648 277.381 34.2187 277.717 33.856C278.058 33.488 278.471 33.1973 278.957 32.984C279.447 32.7707 279.999 32.664 280.613 32.664C281.13 32.664 281.607 32.7467 282.045 32.912C282.482 33.0773 282.858 33.32 283.173 33.64C283.487 33.9547 283.733 34.344 283.909 34.808C284.09 35.2667 284.181 35.792 284.181 36.384C284.181 36.6827 284.149 36.8853 284.085 36.992C284.021 37.0933 283.898 37.144 283.717 37.144H278.637ZM291.104 39.592V34.304H289.088C289.035 34.992 288.968 35.6133 288.888 36.168C288.808 36.7173 288.715 37.208 288.608 37.64C288.502 38.072 288.384 38.448 288.256 38.768C288.134 39.088 288 39.3627 287.856 39.592H291.104ZM294.528 39.536V43.16C294.528 43.3413 294.475 43.4853 294.368 43.592C294.267 43.6987 294.134 43.752 293.968 43.752H292.736V41H286.592V43.192C286.592 43.3307 286.547 43.4587 286.456 43.576C286.371 43.6933 286.235 43.752 286.048 43.752H284.8V39.592H285.032C285.219 39.592 285.4 39.568 285.576 39.52C285.752 39.4667 285.92 39.36 286.08 39.2C286.246 39.04 286.4 38.8107 286.544 38.512C286.694 38.208 286.827 37.8053 286.944 37.304C287.062 36.7973 287.163 36.176 287.248 35.44C287.339 34.704 287.411 33.8213 287.464 32.792H293.024V39.536H294.528ZM299.125 39.648C299.541 39.648 299.869 39.5467 300.109 39.344C300.354 39.1413 300.477 38.864 300.477 38.512C300.477 38.3627 300.456 38.224 300.413 38.096C300.376 37.9627 300.306 37.848 300.205 37.752C300.104 37.656 299.965 37.5813 299.789 37.528C299.618 37.4747 299.4 37.448 299.133 37.448H297.653V39.648H299.125ZM297.653 34.08V36.232H298.949C299.141 36.232 299.317 36.2053 299.477 36.152C299.637 36.0933 299.776 36.0133 299.893 35.912C300.01 35.8053 300.101 35.6827 300.165 35.544C300.229 35.4 300.261 35.2427 300.261 35.072C300.261 34.9493 300.24 34.8293 300.197 34.712C300.154 34.5893 300.082 34.4827 299.981 34.392C299.88 34.296 299.744 34.2213 299.573 34.168C299.408 34.1093 299.2 34.08 298.949 34.08H297.653ZM299.005 32.792C299.522 32.792 299.968 32.8427 300.341 32.944C300.72 33.0453 301.032 33.184 301.277 33.36C301.522 33.536 301.704 33.7467 301.821 33.992C301.938 34.232 301.997 34.4933 301.997 34.776C301.997 34.952 301.973 35.136 301.925 35.328C301.882 35.5147 301.802 35.696 301.685 35.872C301.573 36.048 301.418 36.208 301.221 36.352C301.024 36.496 300.773 36.608 300.469 36.688C300.741 36.7467 300.989 36.8293 301.213 36.936C301.437 37.0373 301.629 37.168 301.789 37.328C301.949 37.4827 302.072 37.6667 302.157 37.88C302.248 38.088 302.293 38.3227 302.293 38.584C302.293 39 302.205 39.36 302.029 39.664C301.858 39.968 301.626 40.2187 301.333 40.416C301.045 40.6133 300.709 40.76 300.325 40.856C299.946 40.952 299.549 41 299.133 41H295.773V32.792H299.005ZM311.196 32.792V41H309.22V36.208C309.22 36.0853 309.225 35.952 309.236 35.808C309.252 35.6587 309.27 35.5093 309.292 35.36C309.185 35.6053 309.068 35.8213 308.94 36.008C308.929 36.0187 308.876 36.0933 308.78 36.232C308.684 36.3653 308.558 36.5387 308.404 36.752C308.254 36.9653 308.084 37.208 307.892 37.48C307.7 37.7467 307.505 38.0187 307.308 38.296C306.844 38.952 306.318 39.6933 305.732 40.52C305.657 40.632 305.558 40.7413 305.436 40.848C305.318 40.9547 305.182 41.008 305.028 41.008H303.82V32.8H305.796V37.592C305.796 37.7147 305.788 37.8507 305.772 38C305.761 38.144 305.745 38.2907 305.724 38.44C305.841 38.1787 305.958 37.9627 306.076 37.792C306.081 37.7813 306.132 37.7093 306.228 37.576C306.324 37.4427 306.446 37.2693 306.596 37.056C306.75 36.8427 306.924 36.6027 307.116 36.336C307.308 36.064 307.502 35.7867 307.7 35.504C308.164 34.848 308.692 34.1067 309.284 33.28C309.358 33.1627 309.457 33.0533 309.58 32.952C309.702 32.8453 309.841 32.792 309.996 32.792H311.196ZM325.124 41H323.756C323.404 41 323.137 40.9467 322.956 40.84C322.775 40.7333 322.631 40.56 322.524 40.32L321.308 38.048C321.207 37.8507 321.071 37.704 320.9 37.608C320.735 37.512 320.54 37.464 320.316 37.464H319.668V41H317.756V37.464H317.1C316.881 37.464 316.687 37.512 316.516 37.608C316.345 37.704 316.209 37.8507 316.108 38.048L314.892 40.32C314.785 40.56 314.641 40.7333 314.46 40.84C314.279 40.9467 314.012 41 313.66 41H312.3L314.22 37.616C314.353 37.376 314.505 37.1787 314.676 37.024C314.847 36.864 315.065 36.7413 315.332 36.656C315.135 36.5867 314.967 36.488 314.828 36.36C314.689 36.2267 314.556 36.0533 314.428 35.84L312.508 32.792H314.068C314.249 32.792 314.415 32.84 314.564 32.936C314.719 33.0267 314.839 33.152 314.924 33.312L316.316 35.672C316.417 35.8427 316.535 35.9707 316.668 36.056C316.807 36.136 316.988 36.176 317.212 36.176H317.756V32.792H319.668V36.176H320.172C320.396 36.176 320.58 36.136 320.724 36.056C320.873 35.9707 320.999 35.8427 321.1 35.672L322.492 33.312C322.577 33.152 322.695 33.0267 322.844 32.936C322.999 32.84 323.169 32.792 323.356 32.792H324.908L322.988 35.84C322.86 36.0533 322.727 36.2267 322.588 36.36C322.449 36.488 322.281 36.5867 322.084 36.656C322.351 36.7413 322.569 36.864 322.74 37.024C322.911 37.1787 323.063 37.376 323.196 37.616L325.124 41ZM333.602 32.792V41H331.626V36.208C331.626 36.0853 331.631 35.952 331.642 35.808C331.658 35.6587 331.677 35.5093 331.698 35.36C331.591 35.6053 331.474 35.8213 331.346 36.008C331.335 36.0187 331.282 36.0933 331.186 36.232C331.09 36.3653 330.965 36.5387 330.81 36.752C330.661 36.9653 330.49 37.208 330.298 37.48C330.106 37.7467 329.911 38.0187 329.714 38.296C329.25 38.952 328.725 39.6933 328.138 40.52C328.063 40.632 327.965 40.7413 327.842 40.848C327.725 40.9547 327.589 41.008 327.434 41.008H326.226V32.8H328.202V37.592C328.202 37.7147 328.194 37.8507 328.178 38C328.167 38.144 328.151 38.2907 328.13 38.44C328.247 38.1787 328.365 37.9627 328.482 37.792C328.487 37.7813 328.538 37.7093 328.634 37.576C328.73 37.4427 328.853 37.2693 329.002 37.056C329.157 36.8427 329.33 36.6027 329.522 36.336C329.714 36.064 329.909 35.7867 330.106 35.504C330.57 34.848 331.098 34.1067 331.69 33.28C331.765 33.1627 331.863 33.0533 331.986 32.952C332.109 32.8453 332.247 32.792 332.402 32.792H333.602ZM345.066 32.776V41H343.282V36.424C343.282 36.2373 343.29 36.0267 343.306 35.792C343.327 35.5573 343.359 35.3387 343.402 35.136L340.986 39.568C340.869 39.7973 340.682 39.912 340.426 39.912H340.218C339.962 39.912 339.775 39.7973 339.658 39.568L337.21 35.112C337.247 35.3147 337.277 35.536 337.298 35.776C337.325 36.016 337.338 36.232 337.338 36.424V41H335.554V32.776H337.186C337.325 32.776 337.461 32.8053 337.594 32.864C337.733 32.9227 337.847 33.04 337.938 33.216L339.874 36.672C339.959 36.832 340.039 37.0027 340.114 37.184C340.189 37.36 340.258 37.5387 340.322 37.72C340.386 37.5387 340.453 37.3573 340.522 37.176C340.597 36.9947 340.677 36.8267 340.762 36.672L342.682 33.216C342.778 33.0347 342.893 32.9173 343.026 32.864C343.159 32.8053 343.295 32.776 343.434 32.776H345.066ZM350.655 32.664C351.263 32.664 351.815 32.7627 352.311 32.96C352.812 33.1573 353.239 33.4373 353.591 33.8C353.948 34.1627 354.223 34.6053 354.415 35.128C354.607 35.6507 354.703 36.2347 354.703 36.88C354.703 37.5307 354.607 38.1173 354.415 38.64C354.223 39.1627 353.948 39.608 353.591 39.976C353.239 40.344 352.812 40.6267 352.311 40.824C351.815 41.0213 351.263 41.12 350.655 41.12C350.042 41.12 349.484 41.0213 348.983 40.824C348.482 40.6267 348.052 40.344 347.695 39.976C347.343 39.608 347.068 39.1627 346.871 38.64C346.679 38.1173 346.583 37.5307 346.583 36.88C346.583 36.2347 346.679 35.6507 346.871 35.128C347.068 34.6053 347.343 34.1627 347.695 33.8C348.052 33.4373 348.482 33.1573 348.983 32.96C349.484 32.7627 350.042 32.664 350.655 32.664ZM350.655 39.6C351.338 39.6 351.842 39.3707 352.167 38.912C352.498 38.4533 352.663 37.7813 352.663 36.896C352.663 36.0107 352.498 35.336 352.167 34.872C351.842 34.408 351.338 34.176 350.655 34.176C349.962 34.176 349.447 34.4107 349.111 34.88C348.78 35.344 348.615 36.016 348.615 36.896C348.615 37.776 348.78 38.448 349.111 38.912C349.447 39.3707 349.962 39.6 350.655 39.6ZM362.09 34.528C362.032 34.6027 361.973 34.6613 361.914 34.704C361.861 34.7467 361.781 34.768 361.674 34.768C361.573 34.768 361.474 34.7387 361.378 34.68C361.282 34.616 361.168 34.5467 361.034 34.472C360.901 34.392 360.741 34.3227 360.554 34.264C360.373 34.2 360.146 34.168 359.874 34.168C359.528 34.168 359.224 34.232 358.962 34.36C358.701 34.4827 358.482 34.6613 358.306 34.896C358.136 35.1307 358.008 35.416 357.922 35.752C357.837 36.0827 357.794 36.4587 357.794 36.88C357.794 37.3173 357.84 37.7067 357.93 38.048C358.026 38.3893 358.162 38.6773 358.338 38.912C358.514 39.1413 358.728 39.3173 358.978 39.44C359.229 39.5573 359.512 39.616 359.826 39.616C360.141 39.616 360.394 39.5787 360.586 39.504C360.784 39.424 360.949 39.3387 361.082 39.248C361.216 39.152 361.33 39.0667 361.426 38.992C361.528 38.912 361.64 38.872 361.762 38.872C361.922 38.872 362.042 38.9333 362.122 39.056L362.69 39.776C362.472 40.032 362.234 40.248 361.978 40.424C361.722 40.5947 361.456 40.7333 361.178 40.84C360.906 40.9413 360.624 41.0133 360.33 41.056C360.042 41.0987 359.754 41.12 359.466 41.12C358.96 41.12 358.482 41.0267 358.034 40.84C357.586 40.648 357.194 40.3707 356.858 40.008C356.522 39.6453 356.256 39.2027 356.058 38.68C355.866 38.152 355.77 37.552 355.77 36.88C355.77 36.2773 355.856 35.72 356.026 35.208C356.202 34.6907 356.458 34.2453 356.794 33.872C357.13 33.4933 357.546 33.1973 358.042 32.984C358.538 32.7707 359.109 32.664 359.754 32.664C360.368 32.664 360.904 32.7627 361.362 32.96C361.826 33.1573 362.242 33.44 362.61 33.808L362.09 34.528ZM370.969 34.256H368.041V41H366.065V34.256H363.145V32.792H370.969V34.256ZM379.508 32.792V41H377.532V36.208C377.532 36.0853 377.538 35.952 377.548 35.808C377.564 35.6587 377.583 35.5093 377.604 35.36C377.498 35.6053 377.38 35.8213 377.252 36.008C377.242 36.0187 377.188 36.0933 377.092 36.232C376.996 36.3653 376.871 36.5387 376.716 36.752C376.567 36.9653 376.396 37.208 376.204 37.48C376.012 37.7467 375.818 38.0187 375.62 38.296C375.156 38.952 374.631 39.6933 374.044 40.52C373.97 40.632 373.871 40.7413 373.748 40.848C373.631 40.9547 373.495 41.008 373.34 41.008H372.132V32.8H374.108V37.592C374.108 37.7147 374.1 37.8507 374.084 38C374.074 38.144 374.058 38.2907 374.036 38.44C374.154 38.1787 374.271 37.9627 374.388 37.792C374.394 37.7813 374.444 37.7093 374.54 37.576C374.636 37.4427 374.759 37.2693 374.908 37.056C375.063 36.8427 375.236 36.6027 375.428 36.336C375.62 36.064 375.815 35.7867 376.012 35.504C376.476 34.848 377.004 34.1067 377.596 33.28C377.671 33.1627 377.77 33.0533 377.892 32.952C378.015 32.8453 378.154 32.792 378.308 32.792H379.508Z" fill="#172B4D"/>
<defs>
<linearGradient id="paint0_linear_735_6839" x1="24" y1="0" x2="24" y2="48" gradientUnits="userSpaceOnUse">
<stop stop-color="#007DCD"/>
<stop offset="1" stop-color="#FF0000"/>
</linearGradient>
</defs>
</svg>
