<svg width="42" height="40" viewBox="0 0 42 40" fill="none" xmlns="http://www.w3.org/2000/svg">
<rect x="0.32373" width="40.809" height="40" rx="20" fill="#E6F6FF"/>
<path d="M25.3237 19V11H15.3237V15H11.3237V29H19.3237V25H21.3237V29H29.3237V19H25.3237ZM15.3237 27H13.3237V25H15.3237V27ZM15.3237 23H13.3237V21H15.3237V23ZM15.3237 19H13.3237V17H15.3237V19ZM19.3237 23H17.3237V21H19.3237V23ZM19.3237 19H17.3237V17H19.3237V19ZM19.3237 15H17.3237V13H19.3237V15ZM23.3237 23H21.3237V21H23.3237V23ZM23.3237 19H21.3237V17H23.3237V19ZM23.3237 15H21.3237V13H23.3237V15ZM27.3237 27H25.3237V25H27.3237V27ZM27.3237 23H25.3237V21H27.3237V23Z" fill="#038DD2"/>
</svg>
